<?xml version="1.0" encoding="UTF-8" standalone="no"?>
<!DOCTYPE svg PUBLIC "-//W3C//DTD SVG 1.1//EN" "http://www.w3.org/Graphics/SVG/1.1/DTD/svg11.dtd">
<svg width="100%" height="100%" viewBox="0 0 1578 463" version="1.1" xmlns="http://www.w3.org/2000/svg" xmlns:xlink="http://www.w3.org/1999/xlink" xml:space="preserve" xmlns:serif="http://www.serif.com/" style="fill-rule:evenodd;clip-rule:evenodd;stroke-linejoin:round;stroke-miterlimit:1.41421;">
    <g transform="matrix(1,0,0,1,-328.95,-1311.62)">
        <g id="Ebene-1" serif:id="Ebene 1" transform="matrix(4.16667,0,0,4.16667,0,0)">
            <g transform="matrix(1,0,0,1,290.401,362.23)">
                <path d="M0,0C0,26.113 -20.937,47.282 -46.763,47.282C-72.589,47.282 -93.525,26.113 -93.525,0C-93.525,-26.113 -72.589,-47.282 -46.763,-47.282C-20.937,-47.282 0,-26.113 0,0" style="fill:rgb(178,178,178);"/>
            </g>
            <g transform="matrix(1,0,0,1,243.639,409.353)">
                <path d="M0,-94.246C-25.698,-94.246 -46.605,-73.107 -46.605,-47.123C-46.605,-21.139 -25.698,0 0,0C25.698,0 46.605,-21.139 46.605,-47.123C46.605,-73.107 25.698,-94.246 0,-94.246M0,0.318C-25.872,0.318 -46.92,-20.964 -46.92,-47.123C-46.92,-73.282 -25.872,-94.564 0,-94.564C25.872,-94.564 46.92,-73.282 46.92,-47.123C46.92,-20.964 25.872,0.318 0,0.318" style="fill:rgb(178,178,178);fill-rule:nonzero;"/>
            </g>
            <g transform="matrix(1,0,0,1,218.015,316.626)">
                <path d="M0,84.364C-1.473,81.831 1.438,81.051 2.877,80.076C13.894,72.617 25.221,64.696 32.415,53.274C36.335,47.047 39.991,38.873 41.048,29.688C42.237,19.365 39.53,8.454 32.111,4.877C25.102,1.498 13.899,5.04 10.451,9.931C9.6,11.139 8.228,13.4 8.482,14.679C9.063,17.602 13.182,15.739 15.601,15.598C21.129,15.275 25.349,19.007 25.447,23.868C25.672,35.086 9.28,36.244 3.938,28.463C0.718,23.773 2.255,15.402 5.301,11.156C9.605,5.158 17.869,1.08 26.053,0.436C36.292,-0.369 43.776,3.515 48.773,8.859C52.897,13.27 56.063,19.339 56.195,26.931C56.354,36.01 53.072,42.97 49.228,48.679C38.271,64.95 20.35,74.561 2.272,83.752C1.642,84.072 0.764,84.733 0,84.364" style="fill:rgb(253,200,64);"/>
            </g>
            <g transform="matrix(1,0,0,1,218.135,317.2)">
                <path d="M0,83.655C0.114,83.703 0.235,83.726 0.368,83.726C0.816,83.726 1.297,83.455 1.722,83.216C1.846,83.146 1.964,83.079 2.075,83.023C21.468,73.164 38.383,63.725 48.966,48.009C52.027,43.462 56.077,36.272 55.904,26.361C55.755,17.881 51.811,11.915 48.528,8.405C44.914,4.538 38.52,-0.071 28.588,-0.071C27.724,-0.071 26.834,-0.035 25.946,0.035C17.586,0.692 9.49,4.873 5.32,10.685C2.158,15.091 0.904,23.342 3.958,27.791C6.041,30.823 10.068,32.707 14.462,32.707C17.853,32.707 20.903,31.565 22.832,29.574C24.424,27.931 25.206,25.819 25.156,23.298C25.059,18.471 20.857,14.884 15.491,15.197C14.891,15.232 14.185,15.375 13.438,15.526C12.501,15.716 11.532,15.912 10.678,15.912C9.244,15.912 8.431,15.332 8.194,14.139C7.908,12.698 9.496,10.245 10.191,9.257C12.745,5.634 19.478,2.797 25.52,2.797C28.004,2.797 30.207,3.251 32.065,4.147C39.86,7.905 42.218,19.405 41.098,29.134C39.945,39.155 35.752,47.531 32.438,52.793C24.95,64.685 12.697,72.981 2.853,79.646C2.567,79.84 2.232,80.021 1.878,80.214C0.967,80.709 -0.066,81.271 -0.302,82.121C-0.427,82.572 -0.328,83.073 0,83.655M0.368,84.072C0.167,84.072 -0.021,84.03 -0.194,83.947L-0.241,83.924L-0.268,83.878C-0.667,83.191 -0.787,82.586 -0.632,82.028C-0.357,81.036 0.744,80.437 1.716,79.909C2.063,79.72 2.39,79.543 2.662,79.358C12.48,72.711 24.699,64.438 32.15,52.607C35.444,47.376 39.612,39.05 40.758,29.094C41.864,19.487 39.56,8.144 31.917,4.46C30.105,3.586 27.953,3.143 25.52,3.143C19.577,3.143 12.966,5.917 10.47,9.458C9.948,10.2 8.263,12.725 8.53,14.072C8.735,15.105 9.397,15.566 10.678,15.566C11.499,15.566 12.45,15.373 13.371,15.187C14.13,15.033 14.847,14.888 15.471,14.852C21.039,14.527 25.396,18.264 25.498,23.291C25.55,25.872 24.712,28.128 23.077,29.817C21.083,31.873 17.944,33.053 14.462,33.053C9.956,33.05 5.823,31.113 3.677,27.988C0.544,23.425 1.814,14.981 5.042,10.481C9.269,4.591 17.464,0.355 25.919,-0.31C26.817,-0.381 27.715,-0.417 28.588,-0.417C38.642,-0.417 45.116,4.251 48.777,8.167C52.102,11.722 56.096,17.764 56.247,26.355C56.421,36.364 52.337,43.618 49.249,48.203C38.62,63.988 21.666,73.452 2.229,83.333C2.122,83.387 2.008,83.451 1.889,83.518C1.428,83.778 0.905,84.072 0.368,84.072" style="fill:rgb(253,200,64);fill-rule:nonzero;"/>
            </g>
            <g transform="matrix(1,0,0,1,84.4209,348.522)">
                <path d="M0,22.393C1.872,29.09 6.769,33.122 12.673,33.122C19.37,33.122 23.546,29.45 23.546,24.049C23.546,20.809 22.394,18.433 20.018,16.849C16.633,14.544 12.385,13.393 7.92,11.664C-0.144,8.496 -4.033,4.968 -4.033,-1.801C-4.033,-10.153 1.944,-15.698 11.233,-15.698C19.297,-15.698 25.058,-11.233 27.506,-2.953L22.322,-1.441C20.594,-7.633 16.489,-10.874 10.657,-10.874C5.04,-10.874 1.512,-7.562 1.512,-2.377C1.512,0.143 2.664,2.16 4.896,3.959C7.128,5.688 11.017,6.84 15.985,8.712C24.914,12.096 29.09,15.624 29.09,23.689C29.09,32.258 22.826,38.091 12.961,38.091C3.672,38.091 -2.592,33.41 -5.473,24.193L0,22.393Z" style="fill:rgb(60,59,58);fill-rule:nonzero;"/>
            </g>
            <g transform="matrix(1,0,0,1,0,-122.454)">
                <path d="M123.084,470.543L128.412,470.543L128.412,508.202L123.084,508.202L123.084,470.543ZM122.652,456.142L128.844,456.142L128.844,462.478L122.652,462.478L122.652,456.142Z" style="fill:rgb(60,59,58);fill-rule:nonzero;"/>
            </g>
            <g transform="matrix(1,0,0,1,140.579,385.1)">
                <path d="M0,-37.011L4.825,-37.011L4.825,-31.323C8.857,-35.571 12.745,-37.659 17.282,-37.659C23.474,-37.659 27.075,-33.915 27.075,-27.218L27.075,0.648L21.962,0.648L21.962,-25.274C21.962,-30.675 20.378,-33.123 15.914,-33.123C12.169,-33.123 8.641,-31.251 5.185,-27.434L5.185,0.648L0,0.648L0,-37.011Z" style="fill:rgb(60,59,58);fill-rule:nonzero;"/>
            </g>
            <g transform="matrix(1,0,0,1,179.819,366.163)">
                <path d="M0,-13.609L-6.337,-13.609L-6.337,-18.073L0,-18.073L0,-23.402C0,-29.954 2.88,-33.195 8.785,-33.195C10.081,-33.195 11.593,-32.979 13.393,-32.547L13.393,-28.226C11.809,-28.587 10.513,-28.731 9.505,-28.731C6.625,-28.731 5.184,-27.074 5.184,-23.834L5.184,-18.073L13.105,-18.073L13.105,-13.609L5.184,-13.609L5.184,19.586L0,19.586L0,-13.609Z" style="fill:rgb(60,59,58);fill-rule:nonzero;"/>
            </g>
            <g transform="matrix(1,0,0,1,296.404,385.1)">
                <path d="M0,-37.011L4.824,-37.011L4.824,-31.323C8.857,-35.571 12.745,-37.659 17.281,-37.659C23.475,-37.659 27.074,-33.914 27.074,-27.218L27.074,0.648L21.962,0.648L21.962,-25.274C21.962,-30.674 20.378,-33.122 15.914,-33.122C12.17,-33.122 8.641,-31.25 5.185,-27.434L5.185,0.648L0,0.648L0,-37.011Z" style="fill:rgb(60,59,58);fill-rule:nonzero;"/>
            </g>
            <g transform="matrix(1,0,0,1,0,-122.455)">
                <path d="M335.356,470.544L340.684,470.544L340.684,508.203L335.356,508.203L335.356,470.544ZM334.924,456.142L341.117,456.142L341.117,462.479L334.924,462.479L334.924,456.142Z" style="fill:rgb(60,59,58);fill-rule:nonzero;"/>
            </g>
            <g transform="matrix(1,0,0,1,373.518,370.338)">
                <path d="M0,-6.84C-0.145,-14.257 -3.744,-18.433 -9.073,-18.433C-14.617,-18.433 -18.074,-14.328 -18.362,-6.84L0,-6.84ZM6.336,7.201C3.384,13.25 -1.513,16.058 -8.713,16.058C-18.434,16.058 -23.834,9.361 -23.834,-3.455C-23.834,-15.841 -18.074,-22.898 -9.146,-22.898C0,-22.898 5.544,-16.129 5.544,-3.96L5.544,-2.375L-18.434,-2.375L-18.434,-1.152C-18.434,6.842 -14.258,11.594 -8.209,11.594C-3.529,11.594 0.287,9.218 2.52,4.825L6.336,7.201Z" style="fill:rgb(60,59,58);fill-rule:nonzero;"/>
            </g>
            <g transform="matrix(1,0,0,1,402.388,336.711)">
                <path d="M0,48.893C-1.655,49.468 -3.456,49.685 -5.544,49.685C-11.233,49.685 -14.112,47.237 -14.112,42.34L-14.112,15.841L-19.729,15.841L-19.729,11.377L-14.112,11.377L-14.112,-0.792L-8.641,-0.792L-8.641,11.377L-0.071,11.377L-0.071,15.841L-8.641,15.841L-8.641,39.963C-8.641,43.78 -8.064,45.077 -3.672,45.077C-2.231,45.077 -1.151,44.789 0,44.5L0,48.893Z" style="fill:rgb(60,59,58);fill-rule:nonzero;"/>
            </g>
            <g transform="matrix(1,0,0,1,424.42,336.711)">
                <path d="M0,48.893C-1.656,49.468 -3.456,49.685 -5.545,49.685C-11.232,49.685 -14.113,47.237 -14.113,42.34L-14.113,15.841L-19.729,15.841L-19.729,11.377L-14.113,11.377L-14.113,-0.792L-8.641,-0.792L-8.641,11.377L-0.072,11.377L-0.072,15.841L-8.641,15.841L-8.641,39.963C-8.641,43.78 -8.064,45.077 -3.672,45.077C-2.232,45.077 -1.152,44.789 0,44.5L0,48.893Z" style="fill:rgb(60,59,58);fill-rule:nonzero;"/>
            </g>
            <g transform="matrix(1,0,0,1,451.205,368.25)">
                <path d="M0,-2.736C-11.737,-0.36 -17.354,2.449 -17.354,7.777C-17.354,11.16 -15.05,13.393 -11.233,13.393C-7.921,13.393 -4.32,11.449 0,7.632L0,-2.736ZM-12.17,18.074C-18.29,18.074 -22.538,13.826 -22.538,7.704C-22.538,-0.576 -15.338,-4.68 0,-7.632L0,-10.369C0,-13.754 -3.024,-16.273 -7.561,-16.273C-11.594,-16.273 -14.834,-14.257 -16.777,-10.369L-21.314,-12.817C-18.506,-18.146 -13.754,-20.81 -7.273,-20.81C0.648,-20.81 5.328,-16.778 5.328,-9.649L5.328,11.377C5.328,13.393 5.616,15.265 6.12,16.921L6.12,17.497L0.359,17.497L-0.217,12.385C-3.673,16.129 -7.633,18.074 -12.17,18.074" style="fill:rgb(60,59,58);fill-rule:nonzero;"/>
            </g>
            <g transform="matrix(1,0,0,1,295.432,399.893)">
                <path d="M0,20.943C-4.815,20.943 -7.644,17.219 -7.644,10.303C-7.644,3.639 -4.844,0 0,0C3.444,0 5.601,1.876 6.692,5.796L4.956,6.215C3.948,3.107 2.353,1.623 -0.111,1.623C-3.584,1.623 -5.684,4.675 -5.684,10.415C-5.684,16.155 -3.472,19.319 0.084,19.319C2.801,19.319 4.452,17.611 5.236,14.139L6.889,14.504C5.964,18.815 3.752,20.943 0,20.943" style="fill:rgb(111,111,110);fill-rule:nonzero;"/>
            </g>
            <g transform="matrix(1,0,0,1,305.567,420.5)">
                <path d="M0,-20.216L1.736,-20.216L1.736,-12.348C3.473,-14.056 5.181,-14.896 6.805,-14.896C9.437,-14.896 10.78,-13.328 10.78,-10.193L10.78,0L9.044,0L9.044,-9.576C9.044,-12.153 8.54,-13.384 6.301,-13.384C4.845,-13.384 3.305,-12.488 1.736,-10.668L1.736,0L0,0L0,-20.216Z" style="fill:rgb(111,111,110);fill-rule:nonzero;"/>
            </g>
            <g transform="matrix(1,0,0,1,328.64,414.118)">
                <path d="M0,-1.85C-4.928,-0.757 -7.195,0.167 -7.195,2.659C-7.195,4.283 -6.271,5.262 -4.76,5.262C-3.164,5.262 -1.708,4.394 0,2.659L0,-1.85ZM0,4.451C-1.596,5.934 -3.191,6.663 -4.983,6.663C-7.392,6.663 -8.932,5.01 -8.932,2.743C-8.932,-0.646 -6.104,-2.158 0.028,-3.249L0.028,-4.677C0.028,-6.106 -1.176,-7.085 -3.191,-7.085C-4.788,-7.085 -5.964,-6.301 -6.832,-4.734L-8.176,-5.518C-7.027,-7.534 -5.487,-8.513 -2.968,-8.513C-0.196,-8.513 1.736,-6.862 1.736,-4.677L1.736,4.422C1.736,4.787 1.82,5.459 1.988,6.382L0.28,6.382C0.141,5.711 0.028,5.066 0,4.451" style="fill:rgb(111,111,110);fill-rule:nonzero;"/>
            </g>
            <g transform="matrix(1,0,0,1,334.939,420.249)">
                <path d="M0,-14.392L1.708,-14.392L1.708,-11.844L1.876,-11.844C2.884,-13.777 4.172,-14.644 6.076,-14.644L6.16,-14.644L6.16,-12.964L5.936,-12.964C3.892,-12.964 2.548,-11.788 1.708,-9.016L1.708,0.252L0,0.252L0,-14.392Z" style="fill:rgb(111,111,110);fill-rule:nonzero;"/>
            </g>
            <g transform="matrix(1,0,0,1,0,-21.104)">
                <rect x="343.619" y="421.389" width="1.764" height="20.216" style="fill:rgb(111,111,110);"/>
            </g>
            <g transform="matrix(1,0,0,1,354.763,407.033)">
                <path d="M0,12.292C2.604,12.292 4.229,10.107 4.229,6.132C4.229,2.156 2.604,0 0,0C-2.604,0 -4.256,2.156 -4.256,6.132C-4.256,10.107 -2.604,12.292 0,12.292M0,-1.428C3.557,-1.428 5.992,1.372 5.992,6.132C5.992,10.892 3.557,13.72 0,13.72C-3.556,13.72 -5.991,10.892 -5.991,6.132C-5.991,1.372 -3.556,-1.428 0,-1.428" style="fill:rgb(111,111,110);fill-rule:nonzero;"/>
            </g>
            <g transform="matrix(1,0,0,1,367.614,402.915)">
                <path d="M0,16.494C0.392,16.494 0.896,16.382 1.54,16.214L1.54,17.614C0.896,17.782 0.224,17.893 -0.42,17.893C-2.436,17.893 -3.304,16.886 -3.304,14.758L-3.304,4.37L-5.488,4.37L-5.488,2.942L-3.304,2.942L-3.304,-1.399L-1.596,-1.399L-1.596,2.942L1.456,2.942L1.456,4.37L-1.596,4.37L-1.596,14.842C-1.596,15.962 -1.092,16.494 0,16.494" style="fill:rgb(111,111,110);fill-rule:nonzero;"/>
            </g>
            <g transform="matrix(1,0,0,1,375.286,402.915)">
                <path d="M0,16.494C0.392,16.494 0.896,16.382 1.54,16.214L1.54,17.614C0.896,17.782 0.224,17.893 -0.42,17.893C-2.436,17.893 -3.304,16.886 -3.304,14.758L-3.304,4.37L-5.488,4.37L-5.488,2.942L-3.304,2.942L-3.304,-1.399L-1.596,-1.399L-1.596,2.942L1.456,2.942L1.456,4.37L-1.596,4.37L-1.596,14.842C-1.596,15.962 -1.092,16.494 0,16.494" style="fill:rgb(111,111,110);fill-rule:nonzero;"/>
            </g>
            <g transform="matrix(1,0,0,1,384.022,419.324)">
                <path d="M0,-12.32C-2.296,-12.32 -3.92,-10.584 -4.2,-7.448L3.836,-7.448C3.752,-10.612 2.296,-12.32 0,-12.32M5.544,-2.352C4.256,0.28 2.604,1.428 0.027,1.428C-3.612,1.428 -5.937,-1.456 -5.937,-6.048C-5.937,-10.892 -3.528,-13.748 -0.028,-13.748C3.5,-13.748 5.46,-11.312 5.46,-6.664L5.46,-6.188L-4.2,-6.188C-4.172,-2.128 -2.633,0.028 0.14,0.028C2.016,0.028 3.22,-0.896 4.256,-3.051L5.544,-2.352Z" style="fill:rgb(111,111,110);fill-rule:nonzero;"/>
            </g>
            <g transform="matrix(1,0,0,1,392.729,420.249)">
                <path d="M0,-14.392L1.736,-14.392L1.736,-12.096C3.472,-13.804 5.18,-14.644 6.804,-14.644C9.437,-14.644 10.752,-13.077 10.752,-9.941L10.752,0.252L9.044,0.252L9.044,-9.325C9.044,-11.901 8.54,-13.132 6.3,-13.132C4.844,-13.132 3.304,-12.237 1.736,-10.416L1.736,0.252L0,0.252L0,-14.392Z" style="fill:rgb(111,111,110);fill-rule:nonzero;"/>
            </g>
            <g transform="matrix(1,0,0,1,414.038,401.713)">
                <path d="M0,17.612C2.352,17.612 3.752,15.456 3.752,11.452C3.752,7.42 2.323,5.263 0,5.263C-1.484,5.263 -2.856,6.188 -4.284,8.036L-4.284,14.868C-2.885,16.716 -1.568,17.612 0,17.612M-6.021,16.66L-6.021,-1.428L-4.284,-1.428L-4.284,6.048L-4.145,6.048C-2.801,4.591 -1.429,3.892 0.252,3.892C3.247,3.892 5.487,6.608 5.487,11.452C5.487,16.296 3.247,19.04 0.252,19.04C-1.429,19.04 -2.801,18.34 -4.145,16.883L-4.284,16.883L-4.732,18.788L-6.133,18.788C-6.021,18.144 -6.021,17.444 -6.021,16.66" style="fill:rgb(111,111,110);fill-rule:nonzero;"/>
            </g>
            <g transform="matrix(1,0,0,1,433.498,406.108)">
                <path d="M0,14.392L-1.708,14.392L-1.708,12.096C-3.444,13.804 -5.152,14.644 -6.776,14.644C-9.408,14.644 -10.752,13.076 -10.752,9.94L-10.752,-0.252L-9.044,-0.252L-9.044,9.324C-9.044,11.9 -8.54,13.132 -6.3,13.132C-4.844,13.132 -3.276,12.208 -1.708,10.388L-1.708,-0.252L0,-0.252L0,14.392Z" style="fill:rgb(111,111,110);fill-rule:nonzero;"/>
            </g>
            <g transform="matrix(1,0,0,1,438.202,420.249)">
                <path d="M0,-14.392L1.708,-14.392L1.708,-11.844L1.876,-11.844C2.884,-13.777 4.172,-14.644 6.076,-14.644L6.16,-14.644L6.16,-12.964L5.936,-12.964C3.892,-12.964 2.548,-11.788 1.708,-9.016L1.708,0.252L0,0.252L0,-14.392Z" style="fill:rgb(111,111,110);fill-rule:nonzero;"/>
            </g>
            <g transform="matrix(1,0,0,1,451.138,416.693)">
                <path d="M0,-2.185C2.044,-2.185 3.584,-3.781 3.584,-6.021C3.584,-8.261 2.072,-9.829 0,-9.829C-1.988,-9.829 -3.612,-8.149 -3.612,-6.021C-3.612,-3.865 -1.988,-2.185 0,-2.185M-4.313,5.403C-4.313,6.859 -2.716,7.839 0.224,7.839C3.276,7.839 4.928,6.803 4.928,5.151C4.928,3.219 2.8,2.715 -1.82,2.715C-3.472,3.443 -4.313,4.339 -4.313,5.403M-3.472,-2.101C-4.676,-3.193 -5.236,-4.453 -5.236,-6.021C-5.236,-8.905 -3.024,-11.145 0,-11.145C1.344,-11.145 2.464,-10.809 3.528,-10.025C4.424,-10.92 5.348,-11.34 6.468,-11.34L6.468,-9.717L6.132,-9.717C5.404,-9.717 4.815,-9.577 4.284,-9.185C4.899,-8.261 5.208,-7.281 5.208,-6.161C5.208,-2.941 3.08,-0.869 0.14,-0.869C-0.504,-0.869 -1.232,-0.981 -2.072,-1.261C-3.164,-0.981 -3.724,-0.504 -3.724,0.027C-3.724,1.231 -1.96,1.063 1.652,1.315C4.844,1.54 6.523,2.855 6.523,5.04C6.523,7.699 4.312,9.155 0.14,9.155C-3.78,9.155 -5.908,7.727 -5.908,5.515C-5.908,4.283 -5.208,3.387 -3.752,2.575L-3.752,2.295C-4.76,1.987 -5.292,1.315 -5.292,0.447C-5.292,-0.42 -4.704,-1.149 -3.472,-1.933L-3.472,-2.101Z" style="fill:rgb(111,111,110);fill-rule:nonzero;"/>
            </g>
        </g>
    </g>
</svg>
